<svg width="32" height="32" viewBox="0 0 32 32" fill="none" xmlns="http://www.w3.org/2000/svg">
<circle cx="16" cy="16" r="16" fill="#FFF8ED"/>
<path d="M16 12.6666C20.1421 12.6666 23.5 11.5473 23.5 10.1666C23.5 8.78591 20.1421 7.66663 16 7.66663C11.8579 7.66663 8.5 8.78591 8.5 10.1666C8.5 11.5473 11.8579 12.6666 16 12.6666Z" stroke="#FFBD59" stroke-width="2" stroke-linecap="round" stroke-linejoin="round"/>
<path d="M23.5 16C23.5 17.3833 20.1667 18.5 16 18.5C11.8333 18.5 8.5 17.3833 8.5 16" stroke="#FFBD59" stroke-width="2" stroke-linecap="round" stroke-linejoin="round"/>
<path d="M8.5 10.1666V21.8333C8.5 23.2166 11.8333 24.3333 16 24.3333C20.1667 24.3333 23.5 23.2166 23.5 21.8333V10.1666" stroke="#FFBD59" stroke-width="2" stroke-linecap="round" stroke-linejoin="round"/>
</svg>
